<svg width="488.03749999999997px" height="185.6px" xmlns="http://www.w3.org/2000/svg" viewBox="5.981250000000017 -17.799999999999997 488.03749999999997 185.6" style="background: none;" preserveAspectRatio="xMidYMid"><defs><filter id="editing-extrusion" x="-100%" y="-100%" width="300%" height="300%"><feFlood result="color1" flood-color="#0073ce"></feFlood><feConvolveMatrix order="7,7" divisor="1" kernelMatrix="1 0 0 0 0 0 0 0 1 0 0 0 0 0 0 0 1 0 0 0 0 0 0 0 1 0 0 0 0 0 0 0 1 0 0 0 0 0 0 0 1 0 0 0 0 0 0 0 1" in="SourceAlpha" result="extrude"></feConvolveMatrix><feComposite in="color1" in2="extrude" result="comp-extrude" operator="in"></feComposite><feOffset dx="3.5" dy="3.5" in="comp-extrude" result="offset-extrude"></feOffset><feMerge><feMergeNode in="offset-extrude"></feMergeNode><feMergeNode in="SourceGraphic"></feMergeNode></feMerge></filter></defs><g filter="url(#editing-extrusion)"><g transform="translate(80.44762969017029, 110.85500144958496)"><path d="M23.23-12.63L18.69 0L-1.01 0L25.76-70.70L45.96-70.70L72.72 0L53.03 0L48.48-12.63L23.23-12.63ZM35.86-49.49L27.78-25.76L43.94-25.76L35.86-49.49ZM74.74-1.01L74.74-14.14L74.74-14.14Q95.24-12.63 107.06-12.63L107.06-12.63L107.06-12.63Q108.58-12.63 109.59-13.64L109.59-13.64L109.59-13.64Q110.60-14.65 110.60-16.16L110.60-16.16L110.60-19.70L88.88-19.70L88.88-19.70Q82.01-19.70 77.87-23.84L77.87-23.84L77.87-23.84Q73.73-27.98 73.73-34.84L73.73-34.84L73.73-38.38L73.73-38.38Q73.73-45.25 77.87-49.39L77.87-49.39L77.87-49.39Q82.01-53.53 88.88-53.53L88.88-53.53L123.22-53.53L123.22-40.40L94.94-40.40L94.94-40.40Q93.43-40.40 92.42-39.39L92.42-39.39L92.42-39.39Q91.41-38.38 91.41-36.87L91.41-36.87L91.41-36.87Q91.41-35.35 92.42-34.34L92.42-34.34L92.42-34.34Q93.43-33.33 94.94-33.33L94.94-33.33L113.12-33.33L113.12-33.33Q119.99-33.33 124.13-29.19L124.13-29.19L124.13-29.19Q128.27-25.05 128.27-18.18L128.27-18.18L128.27-14.14L128.27-14.14Q128.27-7.27 124.13-3.13L124.13-3.13L124.13-3.13Q119.99 1.01 113.12 1.01L113.12 1.01L113.12 1.01Q95.24 1.01 74.74-1.01L74.74-1.01ZM160.59-21.21L153.02-21.21L153.02 0L135.34 0L135.34-70.70L153.02-70.70L153.02-34.84L161.10-34.84L172.21-53.53L190.89-53.53L175.74-27.78L190.89 0L172.21 0L160.59-21.21ZM257.55 0L257.55-39.39L243.41-14.14L229.27-14.14L215.13-39.39L215.13 0L196.95 0L196.95-70.70L216.14-70.70L236.34-33.33L256.54-70.70L275.73-70.70L275.73 0L257.55 0ZM316.63-41.91L307.55-41.91L307.55-41.91Q303.50-41.91 303.50-37.88L303.50-37.88L303.50-32.32L320.68-32.32L320.68-37.88L320.68-37.88Q320.68-41.91 316.63-41.91L316.63-41.91ZM336.33-13.64L336.33-1.01L336.33-1.01Q316.84 1.01 300.98 1.01L300.98 1.01L300.98 1.01Q294.11 1.01 289.97-3.13L289.97-3.13L289.97-3.13Q285.83-7.27 285.83-14.14L285.83-14.14L285.83-38.38L285.83-38.38Q285.83-45.96 290.12-50.25L290.12-50.25L290.12-50.25Q294.42-54.54 301.99-54.54L301.99-54.54L322.19-54.54L322.19-54.54Q329.77-54.54 334.06-50.25L334.06-50.25L334.06-50.25Q338.35-45.96 338.35-38.38L338.35-38.38L338.35-19.70L303.50-19.70L303.50-15.66L303.50-15.66Q303.50-14.14 304.52-13.13L304.52-13.13L304.52-13.13Q305.53-12.12 307.04-12.12L307.04-12.12L307.04-12.12Q317.04-12.12 336.33-13.64L336.33-13.64Z" fill="#4ab5ff"></path></g></g><style>text {
  font-size: 64px;
  font-family: Arial Black;
  dominant-baseline: central;
  text-anchor: middle;
}</style></svg>